<svg width="12" height="16" viewBox="0 0 12 16" fill="none" xmlns="http://www.w3.org/2000/svg">
<path d="M0.783203 5.35156C0.783203 5.07031 0.876953 4.83594 1.06445 4.64844C1.25781 4.45508 1.49219 4.3584 1.76758 4.3584H5.26562V1.00977C5.26562 0.734375 5.35938 0.50293 5.54688 0.31543C5.73438 0.12793 5.96875 0.0341797 6.25 0.0341797C6.53125 0.0341797 6.76562 0.12793 6.95312 0.31543C7.14062 0.50293 7.23438 0.734375 7.23438 1.00977V4.3584H10.7324C11.0137 4.3584 11.248 4.45508 11.4355 4.64844C11.623 4.83594 11.7168 5.07031 11.7168 5.35156C11.7168 5.62695 11.623 5.86133 11.4355 6.05469C11.248 6.24219 11.0137 6.33594 10.7324 6.33594H7.23438V9.71973C7.23438 9.99512 7.14062 10.2266 6.95312 10.4141C6.76562 10.6016 6.53125 10.6953 6.25 10.6953C5.96875 10.6953 5.73438 10.6016 5.54688 10.4141C5.35938 10.2266 5.26562 9.99512 5.26562 9.71973V6.33594H1.76758C1.49219 6.33594 1.25781 6.24219 1.06445 6.05469C0.876953 5.86133 0.783203 5.62695 0.783203 5.35156ZM0.783203 14.29C0.783203 14.0146 0.876953 13.7832 1.06445 13.5957C1.25781 13.4082 1.49219 13.3145 1.76758 13.3145H10.7324C11.0078 13.3145 11.2393 13.4082 11.4268 13.5957C11.6201 13.7832 11.7168 14.0146 11.7168 14.29C11.7168 14.5713 11.6201 14.8057 11.4268 14.9932C11.2393 15.1865 11.0078 15.2832 10.7324 15.2832H1.76758C1.49219 15.2832 1.25781 15.1865 1.06445 14.9932C0.876953 14.8057 0.783203 14.5713 0.783203 14.29Z" fill="white"/>
</svg>
