<svg width="16" height="20" viewBox="0 0 16 20" fill="none" xmlns="http://www.w3.org/2000/svg">
<path d="M7.99121 6.46387C7.44629 6.46387 6.95117 6.32324 6.50586 6.04199C6.06055 5.75488 5.70312 5.36816 5.43359 4.88184C5.16992 4.39551 5.03809 3.84473 5.03809 3.22949C5.03809 2.65527 5.16992 2.12793 5.43359 1.64746C5.70312 1.16699 6.06055 0.783203 6.50586 0.496094C6.95117 0.203125 7.44629 0.0566406 7.99121 0.0566406C8.54199 0.0566406 9.04004 0.203125 9.48535 0.496094C9.93066 0.783203 10.2852 1.16699 10.5488 1.64746C10.8125 2.12793 10.9443 2.65527 10.9443 3.22949C10.9443 3.84473 10.8125 4.39844 10.5488 4.89062C10.2852 5.37695 9.93066 5.76074 9.48535 6.04199C9.04004 6.32324 8.54199 6.46387 7.99121 6.46387ZM2.92871 12.8623C2.62402 12.8623 2.38965 12.7773 2.22559 12.6074C2.06152 12.4375 1.97949 12.2207 1.97949 11.957C1.97949 11.5938 2.10547 11.1631 2.35742 10.665C2.61523 10.167 2.99609 9.68066 3.5 9.20605C4.00391 8.72559 4.63086 8.32715 5.38086 8.01074C6.13086 7.69434 7.00098 7.53613 7.99121 7.53613C8.97559 7.53613 9.84277 7.69434 10.5928 8.01074C11.3428 8.32715 11.9697 8.72559 12.4736 9.20605C12.9834 9.68066 13.3672 10.167 13.625 10.665C13.8828 11.1631 14.0117 11.5938 14.0117 11.957C14.0117 12.2207 13.9268 12.4375 13.7568 12.6074C13.5928 12.7773 13.3613 12.8623 13.0625 12.8623H2.92871ZM0.959961 19.2168C0.731445 19.2168 0.535156 19.1348 0.371094 18.9707C0.212891 18.8125 0.133789 18.6191 0.133789 18.3906C0.133789 18.1621 0.212891 17.9658 0.371094 17.8018C0.535156 17.6436 0.731445 17.5645 0.959961 17.5645H1.50488V15.6836C1.50488 15.1797 1.63379 14.793 1.8916 14.5234C2.15527 14.248 2.55078 14.1104 3.07812 14.1104H12.9131C13.4346 14.1104 13.8271 14.248 14.0908 14.5234C14.3545 14.793 14.4863 15.1797 14.4863 15.6836V17.5645H15.0312C15.2598 17.5645 15.4531 17.6436 15.6113 17.8018C15.7754 17.9658 15.8574 18.1621 15.8574 18.3906C15.8574 18.6191 15.7754 18.8125 15.6113 18.9707C15.4531 19.1348 15.2598 19.2168 15.0312 19.2168H0.959961ZM6.28613 17.2744H9.71387C9.88379 17.2744 10.0244 17.2158 10.1357 17.0986C10.2529 16.9873 10.3115 16.8438 10.3115 16.668C10.3115 16.498 10.2529 16.3545 10.1357 16.2373C10.0244 16.126 9.88379 16.0703 9.71387 16.0703H6.28613C6.11621 16.0703 5.97266 16.126 5.85547 16.2373C5.74414 16.3545 5.68848 16.498 5.68848 16.668C5.68848 16.8438 5.74414 16.9873 5.85547 17.0986C5.97266 17.2158 6.11621 17.2744 6.28613 17.2744Z" fill="white"/>
</svg>
